<svg width="332" height="410" viewBox="0 0 332 410" fill="none" xmlns="http://www.w3.org/2000/svg">
<path d="M3 7.99999C3 3.58171 6.58172 0 11 0H321C325.418 0 329 3.58172 329 8V402C329 406.418 325.418 410 321 410H11C6.58173 410 3 406.418 3 402V7.99999Z" fill="#E1E1E1"/>
<g clip-path="url(#clip0)">
<path d="M163.634 198.925C185.605 198.925 204.63 191.045 220.175 175.498C235.72 159.953 243.6 140.933 243.6 118.96C243.6 96.9944 235.72 77.9719 220.172 62.4222C204.625 46.88 185.603 39 163.634 39C141.661 39 122.641 46.88 107.096 62.4247C91.5513 77.9694 83.6687 96.9919 83.6687 118.96C83.6687 140.933 91.5513 159.956 107.099 175.501C122.646 191.043 141.668 198.925 163.634 198.925V198.925Z" fill="black"/>
<path d="M303.552 294.291C303.104 287.822 302.197 280.765 300.862 273.313C299.515 265.805 297.78 258.708 295.703 252.221C293.557 245.516 290.639 238.895 287.032 232.55C283.289 225.965 278.891 220.23 273.957 215.511C268.798 210.574 262.48 206.605 255.175 203.71C247.896 200.83 239.828 199.371 231.198 199.371C227.809 199.371 224.532 200.762 218.202 204.883C214.306 207.423 209.749 210.362 204.663 213.611C200.314 216.382 194.422 218.979 187.145 221.329C180.045 223.627 172.836 224.792 165.721 224.792C158.606 224.792 151.4 223.627 144.293 221.329C137.023 218.981 131.131 216.385 126.787 213.614C121.749 210.395 117.19 207.456 113.236 204.88C106.914 200.759 103.633 199.369 100.244 199.369C91.6121 199.369 83.5471 200.83 76.2699 203.713C68.9699 206.603 62.6502 210.572 57.4855 215.514C52.5538 220.235 48.1541 225.967 44.4154 232.55C40.811 238.895 37.8931 245.514 35.7451 252.224C33.6706 258.711 31.9355 265.805 30.588 273.313C29.2531 280.755 28.3463 287.814 27.898 294.298C27.4573 300.651 27.2344 307.244 27.2344 313.903C27.2344 331.234 32.7436 345.264 43.6074 355.611C54.337 365.821 68.5343 371.001 85.7989 371.001H245.659C262.924 371.001 277.116 365.824 287.848 355.611C298.714 345.272 304.224 331.239 304.224 313.901C304.221 307.211 303.996 300.613 303.552 294.291V294.291Z" fill="black"/>
</g>
<defs>
<clipPath id="clip0">
<rect width="332" height="332" fill="white" transform="translate(0 39)"/>
</clipPath>
</defs>
</svg>
